# MagicaVoxel @ Ephtracy

# group
o 

# material
mtllib sea.mtl
usemtl palette

# normals
vn -1 0 0
vn 1 0 0
vn 0 0 1
vn 0 0 -1
vn 0 -1 0
vn 0 1 0

# texcoords
vt 0.0917969 0.5
vt 0.208984 0.5
vt 0.466797 0.5
vt 0.498047 0.5
vt 0.587891 0.5
vt 0.634766 0.5
vt 0.958984 0.5

# verts
v -0.5 0 0.5
v -0.5 0 -0.5
v -0.5 0.1 0.5
v -0.5 0.1 -0.5
v -0.5 0.2 0.5
v -0.5 0.2 0.4
v -0.5 0.3 0.5
v -0.5 0.3 0.4
v -0.5 0.6 0
v -0.5 0.6 -0.1
v -0.5 0.7 0
v -0.5 0.7 -0.1
v -0.5 0.7 -0.4
v -0.5 0.8 0
v -0.5 0.8 -0.1
v -0.5 0.8 -0.2
v -0.5 0.8 -0.3
v -0.5 0.8 -0.4
v -0.5 0.9 0.5
v -0.5 0.9 0
v -0.5 0.9 -0.1
v -0.5 0.9 -0.2
v -0.5 0.9 -0.3
v -0.5 0.9 -0.5
v -0.5 1 0.5
v -0.5 1 -0.5
v 0.5 0 0.5
v 0.5 0 -0.5
v 0.5 0.1 0.5
v 0.5 0.1 0.3
v 0.5 0.1 0.2
v 0.5 0.1 0.1
v 0.5 0.1 0
v 0.5 0.1 -0.5
v 0.5 0.2 0.4
v 0.5 0.2 0.3
v 0.5 0.2 0.2
v 0.5 0.2 0.1
v 0.5 0.2 0
v 0.5 0.3 0.4
v 0.5 0.3 0.1
v 0.5 0.3 0
v 0.5 0.4 0.1
v 0.5 0.4 0
v 0.5 0.6 -0.3
v 0.5 0.6 -0.4
v 0.5 0.7 0
v 0.5 0.7 -0.3
v 0.5 0.7 -0.4
v 0.5 0.8 0
v 0.5 0.8 -0.1
v 0.5 0.8 -0.2
v 0.5 0.8 -0.3
v 0.5 0.8 -0.4
v 0.5 0.9 0.5
v 0.5 0.9 -0.1
v 0.5 0.9 -0.2
v 0.5 0.9 -0.3
v 0.5 0.9 -0.4
v 0.5 0.9 -0.5
v 0.5 1 0.5
v 0.5 1 -0.5
v -0.5 0 0.5
v -0.5 0.1 0.5
v -0.5 0.2 0.5
v -0.5 0.3 0.5
v -0.5 0.9 0.5
v -0.5 1 0.5
v -0.4 0.1 0.5
v -0.4 0.2 0.5
v -0.4 0.3 0.5
v -0.4 0.4 0.5
v -0.3 0.1 0.5
v -0.3 0.2 0.5
v -0.3 0.3 0.5
v -0.3 0.4 0.5
v -0.2 0.5 0.5
v -0.2 0.7 0.5
v -0.1 0.1 0.5
v -0.1 0.2 0.5
v -0.1 0.4 0.5
v -0.1 0.5 0.5
v -0.1 0.7 0.5
v 0 0.1 0.5
v 0 0.2 0.5
v 0 0.4 0.5
v 0 0.5 0.5
v 0.1 0.2 0.5
v 0.1 0.4 0.5
v 0.2 0.7 0.5
v 0.2 0.8 0.5
v 0.3 0.7 0.5
v 0.3 0.8 0.5
v 0.5 0 0.5
v 0.5 0.1 0.5
v 0.5 0.9 0.5
v 0.5 1 0.5
v -0.5 0 -0.5
v -0.5 0.1 -0.5
v -0.5 0.9 -0.5
v -0.5 1 -0.5
v -0.3 0.2 -0.5
v -0.3 0.4 -0.5
v -0.2 0.3 -0.5
v -0.2 0.4 -0.5
v -0.1 0.3 -0.5
v -0.1 0.4 -0.5
v 0 0.3 -0.5
v 0 0.4 -0.5
v 0.1 0.2 -0.5
v 0.1 0.3 -0.5
v 0.5 0 -0.5
v 0.5 0.1 -0.5
v 0.5 0.9 -0.5
v 0.5 1 -0.5
v -0.5 0 0.5
v 0.5 0 0.5
v -0.5 0 -0.5
v 0.5 0 -0.5
v -0.5 1 0.5
v 0.5 1 0.5
v -0.5 1 -0.5
v 0.5 1 -0.5

# faces
f 3/3/1 2/3/1 1/3/1
f 4/3/1 2/3/1 3/3/1
f 5/5/1 4/5/1 3/5/1
f 6/5/1 4/5/1 5/5/1
f 7/3/1 6/3/1 5/3/1
f 8/5/1 4/5/1 6/5/1
f 8/3/1 6/3/1 7/3/1
f 9/5/1 8/5/1 7/5/1
f 9/5/1 4/5/1 8/5/1
f 10/5/1 4/5/1 9/5/1
f 11/5/1 9/5/1 7/5/1
f 11/4/1 10/4/1 9/4/1
f 12/5/1 4/5/1 10/5/1
f 12/4/1 10/4/1 11/4/1
f 13/5/1 4/5/1 12/5/1
f 14/5/1 11/5/1 7/5/1
f 14/5/1 12/5/1 11/5/1
f 15/4/1 13/4/1 12/4/1
f 15/5/1 12/5/1 14/5/1
f 16/4/1 13/4/1 15/4/1
f 17/4/1 13/4/1 16/4/1
f 18/5/1 4/5/1 13/5/1
f 18/4/1 13/4/1 17/4/1
f 19/5/1 14/5/1 7/5/1
f 20/4/1 15/4/1 14/4/1
f 20/5/1 14/5/1 19/5/1
f 21/5/1 16/5/1 15/5/1
f 21/4/1 15/4/1 20/4/1
f 22/4/1 17/4/1 16/4/1
f 22/5/1 16/5/1 21/5/1
f 23/5/1 18/5/1 17/5/1
f 23/4/1 17/4/1 22/4/1
f 24/5/1 4/5/1 18/5/1
f 24/5/1 18/5/1 23/5/1
f 25/7/1 21/7/1 20/7/1
f 25/7/1 23/7/1 22/7/1
f 25/7/1 24/7/1 23/7/1
f 25/7/1 22/7/1 21/7/1
f 25/7/1 20/7/1 19/7/1
f 26/7/1 24/7/1 25/7/1
f 27/3/2 28/3/2 29/3/2
f 29/3/2 28/3/2 30/3/2
f 30/3/2 28/3/2 31/3/2
f 31/3/2 28/3/2 32/3/2
f 32/3/2 28/3/2 33/3/2
f 33/3/2 28/3/2 34/3/2
f 29/5/2 30/5/2 35/5/2
f 30/1/2 31/1/2 36/1/2
f 35/5/2 30/5/2 36/5/2
f 31/5/2 32/5/2 37/5/2
f 36/1/2 31/1/2 37/1/2
f 32/1/2 33/1/2 38/1/2
f 37/5/2 32/5/2 38/5/2
f 33/5/2 34/5/2 39/5/2
f 38/1/2 33/1/2 39/1/2
f 29/5/2 35/5/2 40/5/2
f 35/1/2 36/1/2 40/1/2
f 36/1/2 37/1/2 40/1/2
f 37/1/2 38/1/2 40/1/2
f 38/5/2 39/5/2 41/5/2
f 40/1/2 38/1/2 41/1/2
f 39/5/2 34/5/2 42/5/2
f 41/5/2 39/5/2 42/5/2
f 40/5/2 41/5/2 43/5/2
f 41/1/2 42/1/2 43/1/2
f 42/5/2 34/5/2 44/5/2
f 43/1/2 42/1/2 44/1/2
f 43/5/2 44/5/2 45/5/2
f 44/5/2 34/5/2 45/5/2
f 45/5/2 34/5/2 46/5/2
f 43/5/2 45/5/2 47/5/2
f 45/2/2 46/2/2 48/2/2
f 47/5/2 45/5/2 48/5/2
f 46/5/2 34/5/2 49/5/2
f 48/2/2 46/2/2 49/2/2
f 47/2/2 48/2/2 50/2/2
f 43/5/2 47/5/2 50/5/2
f 50/2/2 48/2/2 51/2/2
f 51/2/2 48/2/2 52/2/2
f 48/5/2 49/5/2 53/5/2
f 52/2/2 48/2/2 53/2/2
f 49/5/2 34/5/2 54/5/2
f 53/5/2 49/5/2 54/5/2
f 40/5/2 43/5/2 55/5/2
f 29/5/2 40/5/2 55/5/2
f 43/5/2 50/5/2 55/5/2
f 50/5/2 51/5/2 55/5/2
f 51/2/2 52/2/2 56/2/2
f 55/5/2 51/5/2 56/5/2
f 52/5/2 53/5/2 57/5/2
f 56/2/2 52/2/2 57/2/2
f 53/2/2 54/2/2 58/2/2
f 57/5/2 53/5/2 58/5/2
f 54/5/2 34/5/2 59/5/2
f 58/2/2 54/2/2 59/2/2
f 59/5/2 34/5/2 60/5/2
f 57/7/2 58/7/2 61/7/2
f 56/7/2 57/7/2 61/7/2
f 59/7/2 60/7/2 61/7/2
f 58/7/2 59/7/2 61/7/2
f 55/7/2 56/7/2 61/7/2
f 61/7/2 60/7/2 62/7/2
f 69/3/3 64/3/3 63/3/3
f 69/5/3 65/5/3 64/5/3
f 70/3/3 66/3/3 65/3/3
f 70/5/3 65/5/3 69/5/3
f 71/5/3 67/5/3 66/5/3
f 71/3/3 66/3/3 70/3/3
f 72/5/3 67/5/3 71/5/3
f 73/3/3 70/3/3 69/3/3
f 73/3/3 69/3/3 63/3/3
f 74/5/3 71/5/3 70/5/3
f 74/3/3 70/3/3 73/3/3
f 75/3/3 72/3/3 71/3/3
f 75/5/3 71/5/3 74/5/3
f 76/5/3 67/5/3 72/5/3
f 76/3/3 72/3/3 75/3/3
f 77/5/3 75/5/3 74/5/3
f 77/5/3 67/5/3 76/5/3
f 77/5/3 76/5/3 75/5/3
f 77/5/3 74/5/3 73/5/3
f 78/5/3 67/5/3 77/5/3
f 79/3/3 73/3/3 63/3/3
f 79/5/3 77/5/3 73/5/3
f 80/5/3 77/5/3 79/5/3
f 81/5/3 77/5/3 80/5/3
f 82/3/3 78/3/3 77/3/3
f 82/5/3 77/5/3 81/5/3
f 83/5/3 67/5/3 78/5/3
f 83/3/3 78/3/3 82/3/3
f 84/3/3 79/3/3 63/3/3
f 84/3/3 80/3/3 79/3/3
f 85/5/3 81/5/3 80/5/3
f 85/3/3 80/3/3 84/3/3
f 86/3/3 82/3/3 81/3/3
f 86/5/3 81/5/3 85/5/3
f 87/5/3 83/5/3 82/5/3
f 87/3/3 82/3/3 86/3/3
f 88/5/3 85/5/3 84/5/3
f 88/3/3 86/3/3 85/3/3
f 89/5/3 87/5/3 86/5/3
f 89/3/3 86/3/3 88/3/3
f 90/5/3 83/5/3 87/5/3
f 90/5/3 87/5/3 89/5/3
f 90/5/3 89/5/3 88/5/3
f 90/5/3 67/5/3 83/5/3
f 91/5/3 67/5/3 90/5/3
f 92/5/3 90/5/3 88/5/3
f 92/3/3 91/3/3 90/3/3
f 93/5/3 67/5/3 91/5/3
f 93/3/3 91/3/3 92/3/3
f 94/3/3 84/3/3 63/3/3
f 95/5/3 88/5/3 84/5/3
f 95/3/3 84/3/3 94/3/3
f 95/5/3 92/5/3 88/5/3
f 95/5/3 93/5/3 92/5/3
f 96/7/3 68/7/3 67/7/3
f 96/5/3 93/5/3 95/5/3
f 96/5/3 67/5/3 93/5/3
f 97/7/3 68/7/3 96/7/3
f 99/5/4 100/5/4 102/5/4
f 102/5/4 100/5/4 103/5/4
f 102/6/4 103/6/4 104/6/4
f 103/5/4 100/5/4 105/5/4
f 104/6/4 103/6/4 105/6/4
f 102/6/4 104/6/4 106/6/4
f 104/5/4 105/5/4 106/5/4
f 105/5/4 100/5/4 107/5/4
f 106/5/4 105/5/4 107/5/4
f 102/6/4 106/6/4 108/6/4
f 106/6/4 107/6/4 108/6/4
f 107/5/4 100/5/4 109/5/4
f 108/6/4 107/6/4 109/6/4
f 99/5/4 102/5/4 110/5/4
f 102/6/4 108/6/4 110/6/4
f 108/5/4 109/5/4 111/5/4
f 110/6/4 108/6/4 111/6/4
f 98/3/4 99/3/4 112/3/4
f 99/5/4 110/5/4 113/5/4
f 112/3/4 99/3/4 113/3/4
f 110/5/4 111/5/4 113/5/4
f 111/5/4 109/5/4 114/5/4
f 113/5/4 111/5/4 114/5/4
f 100/7/4 101/7/4 114/7/4
f 109/5/4 100/5/4 114/5/4
f 114/7/4 101/7/4 115/7/4
f 118/3/5 117/3/5 116/3/5
f 119/3/5 117/3/5 118/3/5
f 120/7/6 121/7/6 122/7/6
f 122/7/6 121/7/6 123/7/6
